<?xml version="1.0" standalone="no"?>
<!DOCTYPE svg PUBLIC "-//W3C//DTD SVG 20010904//EN"
 "http://www.w3.org/TR/2001/REC-SVG-20010904/DTD/svg10.dtd">
<svg version="1.0" xmlns="http://www.w3.org/2000/svg"
 width="200.000000pt" height="200.000000pt" viewBox="0 0 200.000000 200.000000"
 preserveAspectRatio="xMidYMid meet">
<metadata>
Created by potrace 1.11, written by Peter Selinger 2001-2013
</metadata>
<g transform="translate(0.000000,200.000000) scale(0.100000,-0.100000)"
fill="#000000" stroke="none">
<path d="M865 1739 c-82 -18 -115 -30 -115 -43 0 -21 10 -24 47 -13 32 10 37
9 54 -14 23 -30 51 -86 47 -95 -2 -4 -20 -8 -42 -9 -69 -4 -83 -24 -199 -281
-107 -236 -109 -240 -104 -299 3 -33 8 -71 11 -85 3 -13 8 -42 12 -65 3 -22 9
-58 14 -80 5 -22 11 -60 15 -85 14 -104 46 -170 81 -170 7 0 15 -4 18 -9 4 -7
-93 -149 -157 -228 -7 -10 0 -13 30 -13 35 0 42 5 75 49 l36 48 311 1 311 2
37 -50 c33 -45 41 -50 75 -50 l39 0 -67 93 c-37 50 -76 102 -87 114 -19 22
-16 43 7 43 34 0 66 64 81 165 5 37 12 77 21 130 2 11 7 36 10 55 4 19 8 44
11 55 2 11 6 47 9 80 6 59 5 62 -103 300 -120 266 -134 285 -213 280 -22 -1
-40 -1 -40 1 0 2 16 31 36 64 38 66 35 64 104 48 8 -2 15 4 17 14 10 42 -256
75 -382 47z m236 -34 c19 -6 19 -8 5 -30 -8 -13 -26 -43 -39 -66 -25 -44 -29
-46 -97 -40 -12 1 -61 75 -88 131 -4 9 194 13 219 5z m127 -1242 c10 -16 22
-33 25 -39 4 -8 -68 -11 -253 -11 -185 0 -257 3 -253 11 4 6 16 23 27 39 l20
27 207 0 208 0 19 -27z"/>
</g>
</svg>
